<?xml version="1.0" standalone="no"?><!DOCTYPE svg PUBLIC "-//W3C//DTD SVG 1.1//EN" "http://www.w3.org/Graphics/SVG/1.1/DTD/svg11.dtd"><svg t="1645340949455" class="icon" viewBox="0 0 1024 1024" version="1.1" xmlns="http://www.w3.org/2000/svg" p-id="25662" xmlns:xlink="http://www.w3.org/1999/xlink" width="128" height="128"><defs><style type="text/css"></style></defs><path d="M929.321664 956.792319 91.755774 956.792319c-15.440667 0-27.918863-12.478196-27.918863-27.918863l0 0c0-15.440667 12.478196-27.918863 27.918863-27.918863l837.564867 0c15.440667 0 27.918863 12.478196 27.918863 27.918863l0 0C957.240527 944.314123 944.762331 956.792319 929.321664 956.792319L929.321664 956.792319zM939.535283 166.945243l-84.983533-84.983533c-11.865235-11.763928-27.305903-17.705244-42.8489-17.705244-15.525602 0-30.966269 5.941316-42.74657 17.705244L349.918531 501.016855 234.314607 746.871285c-9.94142 21.297049 6.638187 43.274596 27.220968 43.274596 4.269233 0 8.626471-0.953721 13.087063-2.962471l245.858524-115.524107L939.51891 252.625648C963.16547 228.895177 963.16547 190.591803 939.535283 166.945243L939.535283 166.945243zM487.84588 625.257483l-172.84358 81.216743 81.238232-172.822091 303.531038-303.531038 91.605348 91.601254L487.84588 625.257483 487.84588 625.257483zM900.007011 213.096353l-69.184709 69.180616-91.605348-91.601254 69.184709-69.184709c0.339738-0.357134 1.39579-1.39579 3.319605-1.39579 1.922792 0 2.961448 1.038656 3.319605 1.39579l84.98251 84.983533c0.339738 0.339738 1.39579 1.39579 1.39579 3.319605C901.420197 211.716936 900.346749 212.756615 900.007011 213.096353L900.007011 213.096353zM900.007011 213.096353" p-id="25663" fill="#c1b966"></path></svg>